<?xml version="1.0" encoding="utf-8"?>
<!-- Generator: Adobe Illustrator 26.0.2, SVG Export Plug-In . SVG Version: 6.00 Build 0)  -->
<svg version="1.1" xmlns="http://www.w3.org/2000/svg" xmlns:xlink="http://www.w3.org/1999/xlink" x="0px" y="0px"
	 viewBox="0 0 516 72" style="enable-background:new 0 0 516 72;" xml:space="preserve">
<style type="text/css">
	.st0{fill:#EC0000;}
	.st1{display:none;}
	.st2{display:inline;fill:#00FF00;}
	.st3{display:inline;fill:#E6E6E6;}
	.st4{display:inline;fill:#A400FF;}
	.st5{display:inline;}
	.st6{fill:#00FF00;}
	.st7{fill:#FFFFFF;}
</style>
<g id="REF">
</g>
<g id="Company_Names">
</g>
<g id="Guides" class="st1">
	<rect x="126" y="6" class="st2" width="6" height="60"/>
	<rect x="60" y="6" class="st2" width="6" height="60"/>
	<rect x="132" class="st3" width="384" height="72"/>
	<rect x="132" y="6" class="st2" width="195.33" height="28.5"/>
	<rect x="132" y="37.5" class="st2" width="304.32" height="28.5"/>
	<rect x="345.33" y="9.75" class="st2" width="160.59" height="21"/>
	<rect x="327.33" y="6" class="st4" width="18" height="28.5"/>
</g>
<g id="Super_Manifold">
	<g>
		<path d="M66,6v60h60V6H66z M114,42h-12v12H90V42H78V30h12V18h12v12h12V42z M90,30v12h12V30H90z"/>
	</g>
	<g>
		<circle cx="30" cy="36" r="6"/>
	</g>
	<g>
		<path d="M0,6v60h60V6H0z M30,54c-9.94,0-18-8.06-18-18s8.06-18,18-18s18,8.06,18,18S39.94,54,30,54z"/>
	</g>
	<g>
		<path d="M360.24,15.43c0,0.08-0.23,0.54-0.7,1.38c-0.47,0.84-0.88,1.54-1.24,2.1c-0.36,0.56-0.73,1.1-1.12,1.62
			c2.6,2.17,4.95,4.33,7.07,6.47l-2.16,2.21c-2.33-2.4-4.6-4.53-6.8-6.38c-2.11,2.13-4.82,4.21-8.13,6.24l-1.84-2.49
			c5.42-3.14,9.25-6.85,11.49-11.15h-9.38v-2.77h12.79V15.43z"/>
		<path d="M385,21.66h-18.05v-2.84H385V21.66z"/>
		<path d="M398.24,15.49c-2.02,4.94-4.13,8.79-6.34,11.52l-2.51-1.88c2.27-2.72,4.29-6.38,6.07-10.99L398.24,15.49z M409.21,25.39
			l-2.71,1.75c-1.67-3.84-3.83-7.75-6.47-11.72l2.62-1.4C405.19,17.85,407.38,21.64,409.21,25.39z M406.71,11.12
			c0.7,0,1.3,0.25,1.8,0.75c0.5,0.5,0.75,1.11,0.75,1.85c0,0.73-0.26,1.34-0.78,1.85c-0.52,0.51-1.12,0.76-1.81,0.76
			c-0.68,0-1.27-0.25-1.79-0.74c-0.52-0.49-0.77-1.12-0.77-1.86c0-0.75,0.27-1.37,0.8-1.86C405.43,11.36,406.03,11.12,406.71,11.12z
			 M407.71,13.78c0-0.33-0.1-0.61-0.3-0.84c-0.2-0.22-0.46-0.34-0.77-0.34c-0.28,0-0.52,0.11-0.74,0.32
			c-0.22,0.21-0.33,0.47-0.33,0.77c0,0.33,0.12,0.59,0.35,0.8c0.23,0.21,0.49,0.31,0.77,0.31c0.25,0,0.48-0.1,0.69-0.3
			C407.6,14.31,407.71,14.07,407.71,13.78z"/>
		<path d="M432.2,21.66h-18.05v-2.84h18.05V21.66z"/>
		<path d="M450.34,9.73l-0.77,0.94c1.95,2.49,4.84,4.55,8.69,6.19c-0.75,0.95-1.4,1.8-1.94,2.54c-0.91-0.43-1.78-0.9-2.6-1.41v1.17
			h-12.12V17.9c-0.83,0.54-1.71,1.09-2.67,1.64c-0.58-0.88-1.22-1.72-1.9-2.52c4.42-2.28,7.51-4.71,9.26-7.3H450.34z M439.71,30.86
			v-9.9h15.88v9.9h-2.9v-0.98h-10.07v0.98H439.71z M452.68,23.73h-10.07v3.37h10.07V23.73z M447.63,12.82
			c-1,1.18-2.32,2.38-3.97,3.61h7.79C450.04,15.36,448.76,14.16,447.63,12.82z"/>
		<path d="M465.81,27.85c-0.14-1.21-0.31-2.25-0.51-3.12c0.68,0.13,1.21,0.19,1.6,0.19c0.76,0,1.19-0.38,1.3-1.13
			c0.1-0.75,0.15-1.72,0.15-2.9h-3.12c-0.02,4.42-0.72,7.73-2.09,9.92c-0.78-0.74-1.62-1.44-2.52-2.09
			c1.18-1.92,1.78-4.67,1.79-8.26v-7.23h10.02l-0.1-3.52h3.03l0.03,3.52h2.91c-0.38-0.5-0.98-1.24-1.81-2.22l2.24-1.22
			c0.5,0.54,1.21,1.39,2.13,2.54l-1.64,0.9h2.35v2.56h-6.12c0.07,2.21,0.22,4.13,0.46,5.75c0.94-1.44,1.77-3.01,2.51-4.71l2.62,1.22
			c-1.25,2.77-2.66,5.21-4.24,7.32c0.53,1.39,1.01,2.08,1.44,2.08c0.16,0,0.3-0.1,0.41-0.31c0.11-0.21,0.22-0.72,0.35-1.54
			s0.2-1.53,0.2-2.13c0.64,0.37,1.55,0.8,2.73,1.3c-0.04,0.77-0.22,1.78-0.53,3.03c-0.31,1.25-0.73,2.05-1.24,2.4
			c-0.51,0.35-1.03,0.52-1.55,0.52c-1.55,0-2.83-0.97-3.85-2.9c-1.02,1.11-2.11,2.11-3.24,2.99c-0.68-0.84-1.42-1.59-2.22-2.26
			c1.57-1.13,3-2.44,4.29-3.93c-0.52-2.13-0.87-5.08-1.06-8.84h-7.31v2.52h6.08c0,0.21-0.04,1.45-0.13,3.72
			c-0.09,2.27-0.28,3.66-0.58,4.18c-0.3,0.52-0.68,0.94-1.16,1.28C468.98,27.81,467.76,27.93,465.81,27.85z"/>
		<path d="M488.12,9.75l2.75,0.7c-0.48,1.82-1,3.52-1.56,5.09v8.68c2.28-2.38,3.97-5.16,5.07-8.34h-3.85v-2.67h5.57V9.75h2.82v3.46
			h6.15v2.67h-4.6c1.08,3.02,2.9,5.7,5.45,8.02c-0.61,0.92-1.23,1.94-1.86,3.03c-0.57-0.59-1.1-1.24-1.6-1.96v2.2h-3.54v3.59h-2.82
			v-3.59h-3.44v-2.28c-0.55,0.82-1.15,1.6-1.79,2.35c-0.42-0.68-0.94-1.49-1.56-2.42v5.9h-2.56v-9.39
			c-0.46,0.82-0.92,1.58-1.41,2.28c-0.17-1.29-0.4-2.64-0.68-4.03C485.78,17.46,486.94,14.19,488.12,9.75z M492.93,24.48h3.17v-7.39
			C495.42,19.79,494.36,22.26,492.93,24.48z M498.92,17.2v7.28h3.21C500.83,22.5,499.76,20.07,498.92,17.2z"/>
	</g>
	<g>
		<path d="M148.97,35.04c-15.74,0-17.39-6.4-17.39-10.11v-0.38h11.95c0.11,1.53,0.92,4.02,7.13,4.02H151c6.09,0,6.97-1.3,6.97-2.68
			v-0.04c0-1.46-0.73-2.37-6.7-2.57l-5.29-0.15C134.95,22.82,132,18.95,132,14.54V14.2c0-4.64,3.1-8.7,16.4-8.7h3.41
			c14.1,0,17.31,4.48,17.31,9v0.31h-11.84c-0.11-1.03-0.73-3.03-6.9-3.03H150c-5.71,0-6.28,1-6.28,2.11v0.04
			c0,1.15,0.84,2.07,6.21,2.18l5.13,0.11c10.84,0.31,15.05,2.83,15.05,8.58v0.54c0,4.79-2.68,9.69-17.66,9.69H148.97z"/>
		<path d="M172.3,6h10.92v12.76c0,3.49,1.53,7.66,8.73,7.66c7.09,0,8.7-4.18,8.7-7.66V6h10.88v13.6c0,5.52-2.64,15.36-18.77,15.36
			h-1.53c-16.59,0-18.92-9.84-18.92-15.36V6z"/>
		<path d="M225.47,25.57v8.93h-10.84V6h23.71c10.53,0,13.52,4.18,13.52,9.42v0.61c0,5.17-3.1,9.54-13.52,9.54H225.47z M225.47,18.45
			h11.57c2.49,0,3.6-1.03,3.6-2.6v-0.11c0-1.65-1.03-2.6-3.6-2.6h-11.57V18.45z"/>
		<path d="M285.88,6v6.97h-20.8v3.56h20.38v6.93h-20.38v3.91h21.11v7.13h-31.83V6H285.88z"/>
		<path d="M300.21,34.5h-10.88V6h25.9c8.31,0,11.99,2.68,11.99,7.32v0.42c0,4.14-3.6,5.86-5.75,6.36c3.52,0.8,5.86,3.1,5.86,6.78
			v4.21c0,1.99,0.27,2.72,0.54,3.22v0.19h-11.11c-0.27-0.31-0.34-0.69-0.34-1.49v-3.33c0-3.26-1.49-4.94-5.78-4.94h-10.42V34.5z
			 M300.21,17.84h12.49c2.41,0,3.29-1.07,3.29-2.45v-0.04c0-1.34-0.84-2.41-3.29-2.41h-12.49V17.84z"/>
	</g>
	<path d="M132,37.5h14.94l8.73,16.01l8.89-16.01h14.33V66h-10.76V48.23l-10,17.77h-5.55l-9.96-17.77V66H132V37.5z"/>
	<path d="M209.61,61.4h-16.28l-2.18,4.6h-11.03l14.1-28.5h14.63l14.9,28.5h-11.91L209.61,61.4z M201.34,44.47l-4.67,9.81h9.46
		L201.34,44.47z"/>
	<path d="M237.16,37.5l16.55,16.2V37.5h10.8V66h-10.88l-17.85-17.28V66h-10.8V37.5H237.16z"/>
	<path d="M279.1,66h-10.84V37.5h10.84V66z"/>
	<path d="M313.77,37.5v6.97h-20.15v3.56h19.73v7.01h-19.73V66h-10.76V37.5H313.77z"/>
	<path d="M338.51,36.96c18.39,0,20.76,8.77,20.76,14.14v1.15c0,5.32-2.34,14.29-20.76,14.29h-1.72c-18.46,0-20.8-8.96-20.8-14.29
		V51.1c0-5.36,2.34-14.14,20.8-14.14H338.51z M348.01,51.37c0-3.03-1.95-6.74-10.38-6.74c-8.58,0-10.38,3.72-10.38,6.74v0.46
		c0,2.99,1.95,7.01,10.38,7.01c8.43,0,10.38-3.87,10.38-6.93V51.37z"/>
	<path d="M372.88,37.5v20.34h19.77V66H362V37.5H372.88z"/>
	<path d="M395.52,37.5h20.23c16.43,0,20.57,6.78,20.57,13.48v1.15c0,6.47-3.56,13.87-20.53,13.87h-20.26V37.5z M406.4,58.45h8.08
		c9.5,0,10.53-4.18,10.53-6.67v-0.23c0-2.49-1.03-6.59-10.53-6.59h-8.08V58.45z"/>
</g>
</svg>
