<svg xmlns="http://www.w3.org/2000/svg" viewBox="0 0 486 72"><g id="Super_Manifold" data-name="Super Manifold"><path d="M66,6V66h60V6Zm48,36H102V54H90V42H78V30H90V18h12V30h12ZM90,30V42h12V30Z"/><circle cx="30" cy="36" r="6"/><path d="M0,6V66H60V6ZM30,54A18,18,0,1,1,48,36,18.00464,18.00464,0,0,1,30,54Z"/><path d="M357.81646,16.11182a7.88317,7.88317,0,0,1-.60425,1.18561q-.60425,1.08489-1.0664,1.80359-.46252.71877-.95691,1.387,3.34176,2.79244,6.06994,5.5481l-1.84936,1.89514a79.62952,79.62952,0,0,0-5.83191-5.47486,36.96924,36.96924,0,0,1-6.97632,5.35584l-1.57471-2.13318q6.97632-4.03748,9.86023-9.56726h-8.04748V13.73145h10.97717Z"/><path d="M379.05743,21.4585H363.5667V19.0232h15.49073Z"/><path d="M390.41766,16.16675a40.1366,40.1366,0,0,1-5.43824,9.8877l-2.15149-1.61133a33.50588,33.50588,0,0,0,5.20935-9.42993Zm9.41162,8.4961-2.32544,1.50146a65.28061,65.28061,0,0,0-5.5481-10.05249l2.2522-1.19934A84.252,84.252,0,0,1,399.82928,24.66285Zm-2.14234-12.24976a2.11332,2.11332,0,0,1,1.54285.64087,2.22549,2.22549,0,1,1-3.11279,3.18146,2.11963,2.11963,0,0,1-.66394-1.5976,2.07826,2.07826,0,0,1,.68225-1.593A2.2207,2.2207,0,0,1,397.68694,12.41309Zm.8606,2.28882a1.04175,1.04175,0,0,0-.25635-.71869.84163.84163,0,0,0-.65918-.28839.94689.94689,0,0,0-.91553.93384.87139.87139,0,0,0,.30213.68664.97846.97846,0,0,0,.65918.2655.85741.85741,0,0,0,.59509-.25634A.81972.81972,0,0,0,398.54754,14.70191Z"/><path d="M419.55743,21.4585H404.0667V19.0232h15.49073Z"/><path d="M435.11919,11.2229l-.65918.80567a18.33347,18.33347,0,0,0,7.4524,5.31006q-.97037,1.2269-1.66626,2.179a21.6969,21.6969,0,0,1-2.23389-1.20849v1.00708H427.61187V18.23584q-1.06184.696-2.28882,1.40992a21.76794,21.76794,0,0,0-1.62964-2.16065q5.69477-2.9295,7.94678-6.26221Zm-9.11865,18.12745v-8.4961h13.623v8.4961h-2.49024v-.84229h-8.64257v.84229Zm11.13281-6.11573h-8.64257v2.89307h8.64257Zm-4.3396-9.35669a20.0832,20.0832,0,0,1-3.40576,3.09449h6.68335A20.72129,20.72129,0,0,1,432.79375,13.87793Z"/><path d="M448.39288,26.76856a25.37259,25.37259,0,0,0-.43946-2.67334,7.83608,7.83608,0,0,0,1.37329.16479,1.00705,1.00705,0,0,0,1.11255-.97046,19.05622,19.05622,0,0,0,.13257-2.49023h-2.67334q-.02746,5.68542-1.79443,8.5144a22.12612,22.12612,0,0,0-2.16065-1.79443,13.72036,13.72036,0,0,0,1.53809-7.08618V14.22583h8.5968l-.0824-3.02124h2.6001l.02747,3.02124h2.49939q-.48506-.64077-1.5564-1.90429l1.92261-1.0437q.641.696,1.831,2.179l-1.40991.769h2.01416V16.4231h-5.25513a45.13493,45.13493,0,0,0,.39368,4.93469,27.20445,27.20445,0,0,0,2.15149-4.03747l2.2522,1.0437a33.86117,33.86117,0,0,1-3.63465,6.28051q.68666,1.78529,1.236,1.78528a.40222.40222,0,0,0,.3479-.2655,5.67039,5.67039,0,0,0,.30213-1.32294,13.10869,13.10869,0,0,0,.174-1.82647,21.96989,21.96989,0,0,0,2.34375,1.11694,14.63148,14.63148,0,0,1-.45776,2.6001,3.49549,3.49549,0,0,1-1.062,2.05993,2.34273,2.34273,0,0,1-1.32751.44861q-1.99567,0-3.305-2.49023a22.78177,22.78177,0,0,1-2.78321,2.56347,14.3177,14.3177,0,0,0-1.90429-1.94091,21.34842,21.34842,0,0,0,3.68042-3.36914,42.513,42.513,0,0,1-.90638-7.58057h-6.27136v2.16064H453.117q0,.27467-.10987,3.19062a10.35365,10.35365,0,0,1-.49438,3.58429,3.35755,3.35755,0,0,1-.99317,1.094A6.33412,6.33412,0,0,1,448.39288,26.76856Z"/><path d="M467.53472,11.24121l2.36206.60425q-.6133,2.34393-1.33667,4.36707v7.44324a19.36568,19.36568,0,0,0,4.34876-7.15943h-3.30506V14.20752h4.77906V11.24121h2.417v2.96631h5.27344v2.28882h-3.94593a16.976,16.976,0,0,0,4.67835,6.88477q-.78717,1.19037-1.593,2.60009a13.51544,13.51544,0,0,1-1.37329-1.68457v1.886h-3.03955v3.07617h-2.417V26.18262h-2.948V24.22339a20.36568,20.36568,0,0,1-1.53809,2.01416q-.54-.87889-1.33667-2.07824v5.06286h-2.19726V21.16553q-.58585,1.053-1.2085,1.95923-.21972-1.66608-.58594-3.46069A41.95818,41.95818,0,0,0,467.53472,11.24121Zm4.129,12.63428h2.71912v-6.3446A21.17491,21.17491,0,0,1,471.66375,23.87549Zm5.13611-6.24389v6.24389h2.75574A23.4867,23.4867,0,0,1,476.79986,17.6316Z"/><path d="M148.96982,35.03624c-15.744,0-17.39126-6.39715-17.39126-10.1129v-.38311h11.95161c.115,1.53244.91935,4.0222,7.125,4.0222H151c6.0907,0,6.97172-1.30228,6.97172-2.6814V25.8427c0-1.4556-.72789-2.375-6.7036-2.56642l-5.28634-.15332C134.94953,22.81651,132,18.94763,132,14.54232v-.34478c0-4.6351,3.10284-8.69545,16.39507-8.69545h3.40929c14.09677,0,17.3146,4.48179,17.3146,9.0019v.30645H157.28234c-.115-1.03416-.72789-3.02618-6.89525-3.02618H150.004c-5.70759,0-6.28216.996-6.28216,2.10683v.03833c0,1.14915.84269,2.0685,6.20569,2.18349l5.13283.115c10.84079.30645,15.05445,2.83454,15.05445,8.58064v.53624c0,4.78824-2.6814,9.69146-17.6592,9.69146Z"/><path d="M172.14937,6h10.91727V18.756c0,3.486,1.53225,7.66129,8.73377,7.66129,7.08672,0,8.69563-4.17533,8.69563-7.66129V6h10.87913V19.59886c0,5.51613-2.64326,15.36073-18.77021,15.36073h-1.53225c-16.58672,0-18.92334-9.8446-18.92334-15.36073Z"/><path d="M225.62892,25.57458V34.5H214.75V6h23.74991c10.53415,0,13.52219,4.17533,13.52219,9.42334v.6129c0,5.17135-3.10284,9.53833-13.52219,9.53833Zm0-7.12505h11.5685c2.48994,0,3.60076-1.03416,3.60076-2.60474v-.115c0-1.64706-1.03416-2.60475-3.60076-2.60475h-11.5685Z"/><path d="M286.00336,6v6.97172H265.203v3.56262h20.37894v6.93339H265.203V27.375h21.10683V34.5H254.47718V6Z"/><path d="M300.33341,34.5H289.45428V6h25.89507c8.31252,0,11.98994,2.6814,11.98994,7.3165V13.738c0,4.137-3.60076,5.86091-5.74592,6.35883,3.52428.80436,5.8609,3.10284,5.8609,6.78026V31.0907a6.3221,6.3221,0,0,0,.53625,3.21784V34.5H316.88179a2.08485,2.08485,0,0,1-.34478-1.49393V29.67343c0-3.25616-1.49393-4.94155-5.78425-4.94155H300.33341Zm0-16.66337h12.48785c2.41328,0,3.29431-1.07249,3.29431-2.45161v-.03833c0-1.34061-.8427-2.41329-3.29431-2.41329H300.33341Z"/><path d="M132,37.5h14.93949l8.734,16.01217L164.56057,37.5h14.32659V66H168.123V48.22578L158.12508,66h-5.55447l-9.95978-17.77422V66H132Z"/><path d="M209.61379,61.40322H193.3335L191.15,66H180.11773l14.0968-28.5h14.633L223.74891,66h-11.9133ZM201.33958,44.4717l-4.67344,9.80646h9.46168Z"/><path d="M237.16017,37.5l16.54841,16.20363V37.5h10.80248V66H253.63192L235.78123,48.7237V66H224.97875V37.5Z"/><path d="M279.10187,66H268.26106V37.5h10.84081Z"/><path d="M313.76519,37.5V44.4717H293.616v3.56262h19.72773v7.01007H293.616V66H282.85187V37.5Z"/><path d="M338.51463,36.96372c18.38712,0,20.76208,8.77212,20.76208,14.13512V52.248c0,5.32467-2.33681,14.28826-20.76208,14.28826h-1.72391c-18.46378,0-20.8004-8.96359-20.8004-14.28826V51.09884c0-5.363,2.33662-14.13512,20.8004-14.13512ZM348.01446,51.367c0-3.02619-1.95352-6.74194-10.38086-6.74194-8.58065,0-10.38122,3.71575-10.38122,6.74194v.45959c0,2.98786,1.9537,7.01007,10.38122,7.01007,8.42734,0,10.38086-3.86889,10.38086-6.93341Z"/><path d="M372.8798,37.5V57.84078h19.76625V66h-30.6452V37.5Z"/><path d="M395.52241,37.5h20.22583c16.43342,0,20.57061,6.78028,20.57061,13.48389V52.133c0,6.47382-3.56262,13.867-20.53247,13.867h-20.264Zm10.879,20.95373h8.08256c9.50019,0,10.53435-4.17553,10.53435-6.66547v-.22979c0-2.49-1.03416-6.58863-10.53435-6.58863h-8.08256Z"/></g></svg>